<svg width="64" height="64" viewBox="0 0 24 24" fill="none" xmlns="http://www.w3.org/2000/svg">
  <path d="M9 18C4 19.5 4 15.5 2 15M16 21V17.1C16.0375 16.6231 15.9731 16.1436 15.811 15.6938C15.6489 15.244 15.3929 14.8337 15.06 14.49C18.2 14.14 21.5 12.95 21.5 7.5C21.4997 6.10683 20.9637 4.76716 20 3.76C20.4559 2.53851 20.4236 1.18806 19.91 0C19.91 0 18.73 -0.35 16 1.48C13.708 0.859913 11.292 0.859913 9 1.48C6.27 -0.35 5.09 0 5.09 0C4.57638 1.18806 4.54414 2.53851 5 3.76C4.03627 4.76716 3.50028 6.10683 3.5 7.5C3.5 12.94 6.79 14.14 9.93 14.5C9.60104 14.8402 9.34705 15.2454 9.18413 15.6898C9.02121 16.1342 8.95322 16.6074 8.984 17.08V21" stroke="#9AA5B5" stroke-width="1.7" stroke-linecap="round" stroke-linejoin="round"/>
</svg>
